<?xml version="1.0" encoding="utf-8"?>
<!-- Generator: Adobe Illustrator 18.1.1, SVG Export Plug-In . SVG Version: 6.00 Build 0)  -->
<svg version="1.1" id="Layer_1" xmlns="http://www.w3.org/2000/svg" xmlns:xlink="http://www.w3.org/1999/xlink" x="0px" y="0px"
	 viewBox="-243.2 345 78.5 73" enable-background="new -243.2 345 78.5 73" xml:space="preserve">
<g>
	<path d="M-167.2,358.1l-11.5-11.5c-0.7-0.7-1.9-0.7-2.6,0l-7.2,7.2c-0.6-1.9-2.3-3.3-4.4-3.3h-43.3c-2.6,0-4.6,2.1-4.6,4.6v34.5
		c0,2.6,2.1,4.6,4.6,4.6h7.4l-2.2,2.2c0,0,0,0,0,0l0,0c-0.1,0.1-0.1,0.1-0.1,0.2c-0.1,0.1-0.1,0.2-0.2,0.2c0,0.1-0.1,0.1-0.1,0.2
		c0,0,0,0,0,0.1l-5.8,17.2c-0.2,0.7,0,1.4,0.4,1.9c0.3,0.3,0.8,0.5,1.3,0.5c0.2,0,0.4,0,0.6-0.1l17.2-5.7c0,0,0,0,0,0
		c0.1,0,0.2-0.1,0.4-0.2c0,0,0,0,0,0c0.1-0.1,0.2-0.1,0.3-0.2l16.4-16.4h7.7c2.5,0,4.6-2.1,4.6-4.6v-7.7l11.1-11.1
		c0.1-0.1,0.2-0.2,0.3-0.4l9.6-9.6C-166.5,360-166.5,358.8-167.2,358.1z M-191.9,389.5c0,0.5-0.4,1-1,1h-4.1l5-5V389.5z M-190,360.6
		l3.3,3.3l-37.1,37.1l-3.3-3.3L-190,360.6z M-237.1,389.5v-34.5c0-0.5,0.4-1,1-1h43.3c0.5,0,1,0.4,1,1v2.2l-33.2,33.3h-11.1
		C-236.7,390.5-237.1,390.1-237.1,389.5z M-232.6,412.1l3.7-11l7.3,7.3L-232.6,412.1z M-191.3,379.8
		C-191.3,379.8-191.3,379.8-191.3,379.8l-2,2l-24.9,24.9l-3.1-3.1l37.1-37.1l3.1,3.1L-191.3,379.8z M-178.4,366.8l-8.9-8.9l7.4-7.4
		l8.9,8.9L-178.4,366.8z"/>
	<path d="M-223.8,364.6c0-0.5-0.2-0.9-0.5-1.3l-4.4-4.4c-0.7-0.7-1.9-0.7-2.6,0c-0.7,0.7-0.7,1.9,0,2.6l3.1,3.1l-3.1,3.1
		c-0.7,0.7-0.7,1.9,0,2.6c0.4,0.4,0.8,0.5,1.3,0.5c0.5,0,0.9-0.2,1.3-0.5l4.4-4.4C-224,365.5-223.8,365.1-223.8,364.6z"/>
	<path d="M-221.1,370.8h5.2c1,0,1.8-0.8,1.8-1.8c0-1-0.8-1.8-1.8-1.8h-5.2c-1,0-1.8,0.8-1.8,1.8C-222.9,370-222.1,370.8-221.1,370.8
		z"/>
</g>
</svg>
