<?xml version="1.0" encoding="utf-8"?>
<!-- Generator: Adobe Illustrator 18.1.1, SVG Export Plug-In . SVG Version: 6.00 Build 0)  -->
<svg version="1.1" id="Layer_1" xmlns="http://www.w3.org/2000/svg" xmlns:xlink="http://www.w3.org/1999/xlink" x="0px" y="0px"
	 viewBox="0 0 100 100" enable-background="new 0 0 100 100" xml:space="preserve">
<rect id="Github_3_" x="0" y="0" width="100" height="100"/>
<path id="Github_2_" fill="#FFFFFF" d="M67.4,22.9c0.9,2.1,1.5,5.5,0.6,8c3.6,3.1,4.8,10.5,3.1,16.6c5.1,0.4,11.2-0.2,15.2,1.4
	c-3.7-0.5-8.7-1.4-13.5-1.1c-0.9,0.1-2.2,0-2.2,1.2c5.5,0.4,11,0.9,15.5,2.3c-4.5-0.7-9.9-1.8-15.5-2c-2.3,4.5-6.9,6.8-13.3,7.2
	c0.7,1.5,2,2.1,2.3,4.5c0.5,3.6-0.8,8.9,0.5,11.2c0.6,1.1,1.5,1.2,2.2,2.2c-1.6,1.9-5.4-0.2-5.9-2.2c-0.8-3.3,1.2-8.5-0.9-10.8
	c0.1,3.6-0.9,8.8,0.2,12c0.4,1.3,1.6,1.8,1.2,2.9c-7.3,0.7-4.2-9.4-5.4-15.4c-1.1,0.1-0.6,1.6-0.6,2.3c0,5.9,1.2,13.9-5.1,13.1
	c-0.2-1.2,0.8-1.6,1.2-2.8c1.2-3.3-0.2-8.2,0.3-12.2c-2.4,1.8,0.3,8.2-1.2,11.4c-0.9,1.9-3.6,2.7-5.7,1.8c0.3-1.4,1.7-1.2,2.3-2.5
	c0.9-1.8,0-4.4,0.3-7.1c-4.5,0.9-7.9-0.1-9.6-2.9c-0.8-1.3-0.9-2.7-1.9-3.8c-0.9-1.1-2.4-1.3-2.8-2.8c5.5-1.3,5.7,5.7,10.7,5.9
	c1.5,0.1,2.3-0.4,3.7-0.8c0.4-1.8,1.2-3.1,2.5-4c-6.2-0.8-11.3-2.8-13.6-7.4c-5.6,0.3-10.7,1-15.5,2.2c4.3-1.6,9.6-2.1,15.3-2.3
	c-0.3-2-3.3-1.5-5.1-1.4c-3.4,0.2-7.7,0.6-10.4,1.1c3.9-1.4,9.4-1.2,14.7-1.2c-1.6-5.1-1.1-13.2,2.5-16.2c-1-2.5-0.7-6.7,0.6-8.6
	c3.9,0.2,6.3,1.9,8.8,3.5c3.1-0.9,6.3-1.3,10.5-1.1c1.8,0.1,3.6,0.9,5,0.8c1.3-0.1,2.8-1.6,4-2.2C64.1,23.2,65.5,23,67.4,22.9z"/>
</svg>
