<?xml version="1.0" encoding="utf-8"?>
<!-- Generator: Adobe Illustrator 18.1.1, SVG Export Plug-In . SVG Version: 6.00 Build 0)  -->
<svg version="1.1" id="Layer_1" xmlns="http://www.w3.org/2000/svg" xmlns:xlink="http://www.w3.org/1999/xlink" x="0px" y="0px"
	 viewBox="-240.5 360.8 73.2 43.1" enable-background="new -240.5 360.8 73.2 43.1" xml:space="preserve">
<g>
	<path d="M-236.5,384"/>
</g>
<g>
	<path d="M-169.1,402.2h-69.3V363h69.3V402.2z M-233.9,397.7h60.4v-30.3h-60.4V397.7z"/>
</g>
<path d="M-216.4,372.2C-216.4,372.2-216.4,372.2-216.4,372.2c-5.8,0-10.4,4.7-10.4,10.4c0,0,0,0,0,0.1c0,5.7,4.7,10.3,10.4,10.4v0
	c0,0,0,0,0,0c5.8,0,10.4-4.7,10.4-10.4C-206,376.8-210.7,372.2-216.4,372.2z M-216.4,391.5v-8.9h8.9
	C-207.4,387.5-211.4,391.5-216.4,391.5z"/>
<g>
	<rect x="-201.4" y="372.3" width="20.8" height="4.4"/>
</g>
<g>
	<rect x="-201.4" y="380.7" width="20.8" height="1.5"/>
</g>
<g>
	<rect x="-201.4" y="385.3" width="20.8" height="1.5"/>
</g>
<g>
	<rect x="-201.4" y="390" width="20.8" height="1.5"/>
</g>
</svg>
