<?xml version="1.0" encoding="utf-8"?>
<!-- Generator: Adobe Illustrator 18.1.1, SVG Export Plug-In . SVG Version: 6.00 Build 0)  -->
<svg version="1.1" id="Layer_1" xmlns="http://www.w3.org/2000/svg" xmlns:xlink="http://www.w3.org/1999/xlink" x="0px" y="0px"
	 viewBox="0 0 100 100" enable-background="new 0 0 100 100" xml:space="preserve">
<rect id="LinkedIn_2_" x="0" y="0" fill="#027BB6" width="100" height="100"/>
<path id="LinkedIn_1_" fill="#FFFFFF" d="M84.3,57.6v25.9h-15V59.3c0-6.1-2.2-10.2-7.6-10.2c-4.1,0-6.6,2.8-7.7,5.5
	c-0.4,1-0.5,2.3-0.5,3.7v25.2h-15c0,0,0.2-40.9,0-45.1h15v6.4c0,0-0.1,0.1-0.1,0.1h0.1v-0.1c2-3.1,5.6-7.5,13.5-7.5
	C76.9,37.3,84.3,43.7,84.3,57.6z M22.7,16.6c-5.1,0-8.5,3.4-8.5,7.8c0,4.3,3.3,7.8,8.3,7.8h0.1c5.2,0,8.5-3.5,8.5-7.8
	C31,19.9,27.9,16.6,22.7,16.6z M15.1,83.4h15V38.3h-15V83.4z"/>
</svg>
