<?xml version="1.0" encoding="utf-8"?>
<!-- Generator: Adobe Illustrator 18.1.1, SVG Export Plug-In . SVG Version: 6.00 Build 0)  -->
<svg version="1.1" id="Layer_1" xmlns="http://www.w3.org/2000/svg" xmlns:xlink="http://www.w3.org/1999/xlink" x="0px" y="0px"
	 viewBox="-243.3 347 79 69.7" enable-background="new -243.3 347 79 69.7" xml:space="preserve">
<g>
	<path d="M-176,378c-0.4-1.4-4.1-1.6-5.6-1.1c-5.4,1.8-10.8,3.6-16.2,5.4l-18.8-7.5l-2,2.1l8,9.7c-5.2,1.8-14.7,5.1-16.4,5.7
		c-1.5,0.5,9.6,2.1,12.1,1.6c0,0,19.5-6.4,28.1-9.2c2.2-0.7,4.4-1.5,6.6-2.2C-178.6,382-175.5,379.6-176,378z"/>
	<polygon points="-230,385.4 -231.5,386.8 -227.5,391.5 -221.7,389.4 	"/>
</g>
<path d="M-171.1,348.9h-65.2c-2.5,0-4.4,2-4.4,4.4v56.3c0,2.5,2,4.4,4.4,4.4h65.2c2.5,0,4.4-2,4.4-4.4v-56.3
	C-166.7,350.8-168.7,348.9-171.1,348.9z M-182.2,351.8c1.6,0,3,1.3,3,3c0,1.6-1.3,3-3,3c-1.6,0-3-1.3-3-3
	C-185.2,353.1-183.9,351.8-182.2,351.8z M-190.4,351.8c1.6,0,3,1.3,3,3c0,1.6-1.3,3-3,3c-1.6,0-3-1.3-3-3
	C-193.3,353.1-192,351.8-190.4,351.8z M-171.1,409.6h-65.2v-48.9h65.2V409.6z M-174.1,357.7c-1.6,0-3-1.3-3-3c0-1.6,1.3-3,3-3
	c1.6,0,3,1.3,3,3C-171.1,356.4-172.4,357.7-174.1,357.7z"/>
<text transform="matrix(1 0 0 1 -240.7401 431.4443)" font-family="'HelveticaNeue-Bold'" font-size="3.7037">Created by Azis</text>
<text transform="matrix(1 0 0 1 -240.7401 435.1484)" font-family="'HelveticaNeue-Bold'" font-size="3.7037">from the Noun Project</text>
</svg>
