<?xml version="1.0" encoding="utf-8"?>
<!-- Generator: Adobe Illustrator 18.1.1, SVG Export Plug-In . SVG Version: 6.00 Build 0)  -->
<svg version="1.1" id="Layer_1" xmlns="http://www.w3.org/2000/svg" xmlns:xlink="http://www.w3.org/1999/xlink" x="0px" y="0px"
	 viewBox="0 0 100 100" enable-background="new 0 0 100 100" xml:space="preserve">
<rect id="WordPress_3_" x="0" y="0" fill="#24759C" width="100" height="100"/>
<path id="WordPress_1_" fill="#FFFFFF" d="M15,50c0,19.3,15.7,35,35,35c19.3,0,35-15.7,35-35c0-19.3-15.7-35-35-35
	C30.7,15,15,30.7,15,50z M17.7,50c0-4.7,1-9.1,2.8-13.1l15.4,42.2C25.1,73.8,17.7,62.8,17.7,50z M50,82.3c-3.2,0-6.2-0.5-9.1-1.3
	l9.7-28.2L60.5,80c0.1,0.2,0.1,0.3,0.2,0.4C57.4,81.7,53.8,82.3,50,82.3z M76.1,49.4c1.8-4.6,2.5-8.3,2.5-11.6
	c0-1.2-0.1-2.3-0.2-3.3c2.5,4.6,4,9.9,4,15.5c0,11.9-6.5,22.3-16.1,27.9L76.1,49.4z M69.1,39.5c1.2,2.2,2.7,4.9,2.7,8.9
	c0,2.8-0.8,6.2-2.5,10.4l-3.2,10.8L54.4,34.9c1.9-0.1,3.7-0.3,3.7-0.3c1.7-0.2,1.5-2.8-0.2-2.7c0,0-5.2,0.4-8.6,0.4
	c-3.2,0-8.5-0.4-8.5-0.4c-1.7-0.1-1.9,2.6-0.2,2.7c0,0,1.7,0.2,3.4,0.3l5,13.8L42,69.8l-11.8-35c1.9-0.1,3.7-0.3,3.7-0.3
	c1.7-0.2,1.5-2.8-0.2-2.7c0,0-5.2,0.4-8.6,0.4c-0.6,0-1.3,0-2.1,0c5.8-8.8,15.7-14.6,27-14.6c8.4,0,16.1,3.2,21.8,8.5
	c-0.1,0-0.3,0-0.4,0c-3.2,0-5.4,2.8-5.4,5.7C66,34.5,67.5,36.8,69.1,39.5z"/>
</svg>
